# xmcd
#
# Track frame offsets: 
#        150
#        11037
#        24805
#        55775
#        64237
#        77662
#        96090
#        115179
#        126815
#        157035
#        169247
#        192980
#        210457
#        234387
#        247025
#
# Disc length: 3385 seconds
#
# Revision: 1
# Processed by: cddbd v1.5.2PL0 Copyright (c) Steve Scherf et al.
# Submitted via: ExactAudioCopy v1.0b4
#
DISCID=c20d370f
DTITLE=Sean Costello and His Jivebombers - Call the Cops
DYEAR=1996
DGENRE=Modern Blues, Electric Blues
TTITLE0=Take Me Back
TTITLE1=One More Chance With You
TTITLE2=Anna Lee
TTITLE3=Call the Cops
TTITLE4=Why Baby?
TTITLE5=Sail On
TTITLE6=Jelly Roll
TTITLE7=Sit Down Baby
TTITLE8=Blues Para Mi Angelita
TTITLE9=(Let Me) Take You Home
TTITLE10=My Favorite Things
TTITLE11=Take a Walk With Me
TTITLE12=I'm Leaving
TTITLE13=Everybody Wants Her
TTITLE14=She Was a Dreamer
EXTD=
EXTT0=
EXTT1=
EXTT2=
EXTT3=
EXTT4=
EXTT5=
EXTT6=
EXTT7=
EXTT8=
EXTT9=
EXTT10=
EXTT11=
EXTT12=
EXTT13=
EXTT14=
PLAYORDER=
